<svg width="39" height="53" viewBox="0 0 39 53" fill="none" xmlns="http://www.w3.org/2000/svg">
<mask id="mask0_22_66" style="mask-type:luminance" maskUnits="userSpaceOnUse" x="0" y="0" width="39" height="53">
<path d="M0 0H38.0802V52.8083H0V0Z" fill="white"/>
</mask>
<g mask="url(#mask0_22_66)">
<mask id="mask1_22_66" style="mask-type:luminance" maskUnits="userSpaceOnUse" x="0" y="0" width="39" height="53">
<path d="M35.286 52.8084H2.79427C2.05204 52.8084 1.341 52.5131 0.817074 51.9892C0.293149 51.4653 0 50.7542 0 50.0141V2.87535C0 2.13521 0.293149 1.42416 0.817074 0.900238C1.341 0.376312 2.05204 0.0810852 2.79427 0.0810852H35.286C36.0261 0.0810852 36.7371 0.376312 37.2611 0.900238C37.785 1.42416 38.0802 2.13521 38.0802 2.87535V50.0141C38.0802 50.7542 37.785 51.4653 37.2611 51.9892C36.7371 52.5131 36.0261 52.8084 35.286 52.8084Z" fill="white"/>
</mask>
<g mask="url(#mask1_22_66)">
<path d="M38.0802 52.8083H0V0.149689H38.0802V52.8083Z" fill="#C1D37F"/>
</g>
</g>
<mask id="mask2_22_66" style="mask-type:luminance" maskUnits="userSpaceOnUse" x="22" y="37" width="17" height="16">
<path d="M22.2876 37.0157H38.2548V52.983H22.2876V37.0157Z" fill="white"/>
</mask>
<g mask="url(#mask2_22_66)">
<path d="M38.1677 53.7315H22.2212L22.1921 52.9393L29.0468 43.386L38.2093 36.9534L38.1677 53.7315Z" fill="#5C7457"/>
<path d="M22.2876 52.8084C22.221 52.7793 37.5479 37.5251 38.0802 37.0158C38.0802 37.0158 28.2587 38.8973 23.6722 40.4608C23.6722 40.4608 26.61 45.3154 22.2876 52.8084Z" fill="#545454"/>
</g>
</svg>
