<svg width="827" height="506" viewBox="0 0 827 506" fill="none" xmlns="http://www.w3.org/2000/svg">
<g clip-path="url(#clip0_2115_3)">
<path d="M774.232 502.671C766.393 488.799 757.3 473.383 741.052 468.455C736.534 467.09 731.797 466.601 727.096 467.014C725.614 467.142 725.984 469.426 727.463 469.299C735.344 468.644 743.209 470.725 749.735 475.191C756.015 479.465 760.904 485.408 765.043 491.71C767.578 495.57 769.848 499.594 772.119 503.613C772.845 504.897 774.966 503.97 774.232 502.671Z" fill="#F2F2F2"/>
<path d="M494.22 150.5V282.58H189.16V352.71H108.51V150.5H494.22Z" fill="white"/>
<path d="M105 147V356.22H189.16V349.21H112.01V154.01H490.72V282.58H497.73V147H105Z" fill="#E5E5E5"/>
<path d="M433.85 225.348H189.354V233.979H433.85V225.348Z" fill="#E5E5E5"/>
<path d="M433.85 247.788H189.354V256.419H433.85V247.788Z" fill="#E5E5E5"/>
<path d="M433.85 270.228H189.354V278.859H433.85V270.228Z" fill="#E5E5E5"/>
<path d="M174.514 235.622C177.624 235.622 180.146 233.1 180.146 229.989C180.146 226.878 177.624 224.356 174.514 224.356C171.403 224.356 168.881 226.878 168.881 229.989C168.881 233.1 171.403 235.622 174.514 235.622Z" fill="#E5E5E5"/>
<path d="M389.22 3.5V135.58H84.1598V205.71H3.50977V3.5H389.22Z" fill="white"/>
<path d="M0 0V209.22H84.1601V202.21H7.00999V7.01001H385.72V135.58H392.73V0H0Z" fill="#F1F1F1"/>
<path d="M328.85 78.3478H84.3545V86.9786H328.85V78.3478Z" fill="#F1F1F1"/>
<path d="M328.85 100.788H84.3545V109.419H328.85V100.788Z" fill="#F1F1F1"/>
<path d="M328.85 123.228H84.3545V131.859H328.85V123.228Z" fill="#F1F1F1"/>
<path d="M69.5135 88.6216C72.6244 88.6216 75.1462 86.0998 75.1462 82.9889C75.1462 79.8781 72.6244 77.3563 69.5135 77.3563C66.4027 77.3563 63.8809 79.8781 63.8809 82.9889C63.8809 86.0998 66.4027 88.6216 69.5135 88.6216Z" fill="#F1F1F1"/>
<path d="M595.494 299.414H209.776V501.624H595.494V299.414Z" fill="white"/>
<path d="M599 505.13H206.27V295.908H599V505.13ZM213.283 498.117H591.987V302.921H213.283V498.117Z" fill="#CBCBCB"/>
<path d="M534.696 374.577H290.2V383.207H534.696V374.577Z" fill="#AEC77E"/>
<path d="M534.696 397.017H290.2V405.648H534.696V397.017Z" fill="#AEC77E"/>
<path d="M534.696 419.457H290.2V428.088H534.696V419.457Z" fill="#AEC77E"/>
<path d="M275.359 384.85C278.47 384.85 280.992 382.329 280.992 379.218C280.992 376.107 278.47 373.585 275.359 373.585C272.248 373.585 269.727 376.107 269.727 379.218C269.727 382.329 272.248 384.85 275.359 384.85Z" fill="#AEC77E"/>
<path d="M538.637 295.915C537.786 294.714 537.208 293.342 536.945 291.894C536.681 290.446 536.739 288.958 537.113 287.534C537.487 286.111 538.168 284.787 539.109 283.655C540.05 282.523 541.228 281.612 542.559 280.985L570.456 193.638L589.884 203.73L556.354 286.416C557.259 288.722 557.287 291.281 556.432 293.607C555.577 295.932 553.899 297.864 551.715 299.035C549.531 300.206 546.993 300.535 544.583 299.96C542.173 299.385 540.057 297.946 538.637 295.915Z" fill="#9F616A"/>
<path d="M561.428 205.716C561.161 205.125 561.025 204.483 561.028 203.835C561.032 203.186 561.176 202.546 561.449 201.958L571.004 181.415C571.946 178.233 574.112 175.554 577.026 173.966C579.941 172.378 583.366 172.01 586.551 172.944C589.736 173.877 592.421 176.035 594.017 178.946C595.613 181.856 595.989 185.28 595.065 188.467L591.871 210.971C591.78 211.613 591.551 212.228 591.201 212.774C590.851 213.32 590.387 213.784 589.841 214.135C589.295 214.485 588.68 214.714 588.038 214.806C587.396 214.897 586.742 214.849 586.12 214.665L564.26 208.188C563.638 208.004 563.063 207.688 562.574 207.262C562.086 206.835 561.695 206.308 561.428 205.716Z" fill="#AEC77E"/>
<path d="M642.019 209.183L640.461 231.001L587.475 249.702L586.696 228.663L642.019 209.183Z" fill="#9F616A"/>
<path d="M574.229 177.236L591.371 164.769L619.423 156.977L642.798 161.652L646.694 198.274L642.019 221.65L581.242 235.676L575.008 224.767C575.008 224.767 560.983 210.742 571.891 195.158L574.229 177.236Z" fill="#AEC77E"/>
<path d="M567.995 145.237V124.774C567.995 116.116 571.434 107.813 577.556 101.691C583.678 95.5692 591.981 92.13 600.639 92.13C609.296 92.13 617.599 95.5692 623.721 101.691C629.843 107.813 633.282 116.116 633.282 124.774V145.237C633.281 146.399 632.818 147.514 631.996 148.336C631.174 149.158 630.06 149.62 628.897 149.622H572.38C571.217 149.62 570.103 149.158 569.281 148.336C568.459 147.514 567.996 146.399 567.995 145.237Z" fill="#2F2E41"/>
<path d="M599.327 149.42C612.544 149.42 623.26 138.705 623.26 125.487C623.26 112.269 612.544 101.554 599.327 101.554C586.109 101.554 575.394 112.269 575.394 125.487C575.394 138.705 586.109 149.42 599.327 149.42Z" fill="#9F616A"/>
<path d="M574.737 125.395C574.508 125.131 574.339 124.821 574.24 124.486C574.142 124.151 574.117 123.798 574.166 123.453L577.001 103.711C577.058 103.309 577.213 102.928 577.454 102.601C577.694 102.275 578.013 102.014 578.38 101.841C592.85 95.0685 607.525 95.06 621.995 101.815C622.379 101.997 622.709 102.276 622.954 102.624C623.198 102.971 623.347 103.376 623.388 103.799L625.28 123.567C625.313 123.905 625.274 124.246 625.167 124.568C625.06 124.89 624.886 125.186 624.658 125.438C624.43 125.689 624.151 125.89 623.841 126.027C623.53 126.164 623.195 126.235 622.855 126.235H618.055C617.592 126.234 617.139 126.101 616.748 125.853C616.357 125.604 616.045 125.249 615.848 124.83L613.777 120.391C613.642 120.104 613.419 119.868 613.139 119.719C612.859 119.57 612.538 119.516 612.225 119.565C611.911 119.615 611.623 119.765 611.402 119.992C611.182 120.22 611.041 120.514 611.002 120.828L610.592 124.101C610.518 124.69 610.232 125.231 609.787 125.624C609.342 126.017 608.769 126.234 608.175 126.235H576.578C576.229 126.235 575.883 126.16 575.566 126.015C575.248 125.87 574.965 125.659 574.737 125.395Z" fill="#2F2E41"/>
<path d="M678.63 285.724C677.197 285.391 675.853 284.748 674.695 283.84C673.537 282.931 672.592 281.78 671.927 280.467C671.262 279.154 670.893 277.712 670.846 276.241C670.798 274.77 671.074 273.306 671.654 271.953L634.541 188.106L655.771 182.759L685.576 266.859C687.784 267.984 689.503 269.879 690.408 272.186C691.312 274.493 691.338 277.051 690.482 279.377C689.626 281.702 687.947 283.633 685.762 284.802C683.578 285.972 681.04 286.3 678.63 285.724Z" fill="#9F616A"/>
<path d="M635.806 203.133C635.214 202.868 634.686 202.478 634.258 201.991C633.83 201.503 633.513 200.929 633.327 200.307L626.838 178.601C625.43 175.595 625.272 172.154 626.397 169.031C627.523 165.909 629.841 163.361 632.843 161.945C635.845 160.529 639.286 160.361 642.411 161.478C645.536 162.596 648.091 164.907 649.515 167.905L662.063 186.856C662.422 187.397 662.659 188.009 662.759 188.65C662.86 189.291 662.821 189.946 662.645 190.57C662.47 191.194 662.161 191.774 661.742 192.268C661.322 192.763 660.801 193.161 660.213 193.436L639.565 203.102C638.978 203.377 638.338 203.522 637.689 203.528C637.04 203.533 636.398 203.398 635.806 203.133Z" fill="#AEC77E"/>
<path d="M639.353 490.356L625.845 490.355L619.419 438.253L639.355 438.254L639.353 490.356Z" fill="#9F616A"/>
<path d="M642.798 503.45L599.242 503.448V502.897C599.243 498.401 601.029 494.089 604.208 490.91C607.387 487.731 611.699 485.945 616.195 485.945H616.196L642.798 485.946L642.798 503.45Z" fill="#2F2E41"/>
<path d="M629.087 380.349L619.878 390.231L577.378 359.413L590.97 344.828L629.087 380.349Z" fill="#9F616A"/>
<path d="M641.015 386.755L611.322 418.619L610.919 418.244C607.63 415.179 605.693 410.932 605.534 406.439C605.375 401.946 607.008 397.573 610.073 394.284L610.074 394.283L628.21 374.821L641.015 386.755Z" fill="#2F2E41"/>
<path d="M643.577 231.001L647.898 235.321C669.507 256.93 674.827 286.894 672.232 317.344C671.869 321.859 671.146 326.338 670.07 330.738C662.278 361.906 666.953 461.644 651.369 467.877L648.253 478.786L617.864 477.663L618.643 467.877C618.643 467.877 611.63 453.072 616.305 443.722C620.981 434.372 631.11 365.023 631.11 365.023L625.656 308.141L585.137 328.401C585.137 328.401 606.176 340.089 604.617 347.881C604.617 347.881 617.085 350.997 613.968 358.789L618.643 368.14L607.734 385.282C607.734 385.282 534.49 341.647 540.723 319.829C546.957 298.012 585.917 282.428 585.917 282.428L589.034 259.052L586.346 246.315L640.864 225.358L643.577 231.001Z" fill="#2F2E41"/>
<path d="M825.382 505.13H381.382C381.117 505.13 380.862 505.025 380.675 504.837C380.487 504.65 380.382 504.395 380.382 504.13C380.382 503.865 380.487 503.61 380.675 503.423C380.862 503.235 381.117 503.13 381.382 503.13H825.382C825.647 503.13 825.901 503.235 826.089 503.423C826.277 503.61 826.382 503.865 826.382 504.13C826.382 504.395 826.277 504.65 826.089 504.837C825.901 505.025 825.647 505.13 825.382 505.13Z" fill="#CBCBCB"/>
</g>
<defs>
<clipPath id="clip0_2115_3">
<rect width="826.382" height="505.13" fill="white"/>
</clipPath>
</defs>
</svg>
