<svg width="136" height="53" viewBox="0 0 136 53" fill="none" xmlns="http://www.w3.org/2000/svg">
<mask id="mask0_22_64" style="mask-type:luminance" maskUnits="userSpaceOnUse" x="0" y="0" width="39" height="53">
<path d="M0 0H38.0802V52.8083H0V0Z" fill="white"/>
</mask>
<g mask="url(#mask0_22_64)">
<mask id="mask1_22_64" style="mask-type:luminance" maskUnits="userSpaceOnUse" x="0" y="0" width="39" height="53">
<path d="M35.286 52.8084H2.79427C2.05204 52.8084 1.341 52.5131 0.817074 51.9892C0.293149 51.4653 0 50.7542 0 50.0141V2.87535C0 2.13521 0.293149 1.42416 0.817074 0.900238C1.341 0.376312 2.05204 0.0810852 2.79427 0.0810852H35.286C36.0261 0.0810852 36.7371 0.376312 37.2611 0.900238C37.785 1.42416 38.0802 2.13521 38.0802 2.87535V50.0141C38.0802 50.7542 37.785 51.4653 37.2611 51.9892C36.7371 52.5131 36.0261 52.8084 35.286 52.8084Z" fill="white"/>
</mask>
<g mask="url(#mask1_22_64)">
<path d="M38.0802 52.8083H0V0.149689H38.0802V52.8083Z" fill="#C1D37F"/>
</g>
</g>
<mask id="mask2_22_64" style="mask-type:luminance" maskUnits="userSpaceOnUse" x="22" y="37" width="17" height="16">
<path d="M22.2876 37.0157H38.2548V52.983H22.2876V37.0157Z" fill="white"/>
</mask>
<g mask="url(#mask2_22_64)">
<path d="M38.1677 53.7315H22.2212L22.1921 52.9393L29.0468 43.386L38.2093 36.9534L38.1677 53.7315Z" fill="#5C7457"/>
<path d="M22.2876 52.8084C22.221 52.7792 37.5479 37.5251 38.0802 37.0157C38.0802 37.0157 28.2587 38.8973 23.6722 40.4608C23.6722 40.4608 26.61 45.3154 22.2876 52.8084Z" fill="#545454"/>
</g>
<path d="M45.663 23.4386V3.21757L52.3639 23.4386H54.9814L61.6822 3.07411V23.4386H64.3289V1.49194H59.5553L53.6591 20.1599L47.7629 1.49194H43.0164V23.4386H45.663Z" fill="#EBF1EF"/>
<path d="M69.5908 4.79973C70.6261 4.79973 71.4598 3.99513 71.4598 2.98886C71.4598 2.00962 70.6261 1.20502 69.5908 1.20502C68.5554 1.20502 67.7217 2.00962 67.7217 2.98886C67.7217 3.99513 68.5554 4.79973 69.5908 4.79973ZM70.7987 23.4386V7.5337H68.3537V23.4386H70.7987Z" fill="#EBF1EF"/>
<path d="M77.0397 23.4386V16.6504C77.0397 13.4008 77.4431 11.6752 78.4784 10.5816C79.1396 9.86227 80.0897 9.40279 81.3829 9.40279C82.4765 9.40279 83.2811 9.68971 83.8279 10.2947C84.4599 11.0141 84.7489 12.1638 84.7489 13.8603V23.4386H87.1939V13.8603C87.1939 12.854 87.1939 11.1866 86.4454 9.74792C85.6699 8.2801 84.2603 7.24472 81.7571 7.24472C80.0315 7.24472 78.651 7.93497 77.0397 10.0057V7.53371H74.5947V23.4386H77.0397Z" fill="#EBF1EF"/>
<path d="M93.3476 23.4386V16.6504C93.3476 13.4008 93.7509 11.6752 94.7863 10.5816C95.4474 9.86227 96.3955 9.4028 97.6907 9.4028C98.7843 9.4028 99.5889 9.68971 100.136 10.2947C100.768 11.0141 101.057 12.1638 101.057 13.8603V23.4386H103.502V13.8603C103.502 12.8541 103.502 11.1866 102.753 9.74793C101.976 8.2801 100.566 7.24473 98.065 7.24473C96.3394 7.24473 94.9589 7.93498 93.3476 10.0057V1.49194H90.9026V23.4386H93.3476Z" fill="#EBF1EF"/>
<path d="M111.696 23.7255C113.164 23.7255 114.401 23.4677 115.466 22.8066C116.183 22.3741 116.817 21.7712 117.391 20.9354V23.4386H119.836V14.062C119.836 12.9975 119.836 10.4943 118.169 8.88511C117.046 7.79152 115.349 7.24472 113.509 7.24472C110.459 7.24472 107.669 8.99945 107.125 12.3073H109.57C109.942 10.5234 111.524 9.40279 113.48 9.40279C114.717 9.40279 115.724 9.80405 116.414 10.4943C117.075 11.1575 117.391 12.1056 117.391 13.3426L111.726 14.4362C110.143 14.7522 108.935 15.2408 108.073 15.9311C107.037 16.7377 106.52 17.8584 106.52 19.2098C106.52 21.9999 108.505 23.7255 111.696 23.7255ZM111.985 21.5695C110.143 21.5695 108.965 20.6194 108.965 19.1536C108.965 18.4634 109.195 17.9166 109.626 17.4841C110.172 16.9664 111.035 16.5922 112.243 16.3635L117.42 15.3281C117.42 17.9727 116.788 19.8439 114.516 21.0227C113.796 21.3969 112.963 21.5695 111.985 21.5695Z" fill="#EBF1EF"/>
<path d="M129.873 23.7255C133.786 23.7255 136 21.7982 136 18.8646C136 15.299 132.779 14.6649 129.931 14.1202C127.746 13.6878 125.76 13.3135 125.76 11.617C125.76 10.2365 126.997 9.40279 129.097 9.40279C131.197 9.40279 132.779 10.2947 133.268 12.3073H135.54C134.994 9.14291 132.549 7.24472 129.097 7.24472C125.848 7.24472 123.315 8.82689 123.315 11.8187C123.315 15.0683 126.307 15.6733 129.068 16.2201C131.399 16.6795 133.555 17.139 133.555 19.1245C133.555 20.7358 132.06 21.5695 129.902 21.5695C127.056 21.5695 125.617 20.2451 125.214 18.3178H122.654C123.201 21.6547 125.819 23.7255 129.873 23.7255Z" fill="#EBF1EF"/>
<path d="M45.663 52.6243V33.3825L55.4991 52.6243H59.3537V30.6776H56.7361V49.9776L46.871 30.6776H43.0164V52.6243H45.663Z" fill="#EBF1EF"/>
<path d="M70.5112 52.9112C75.1142 52.9112 78.3347 49.4038 78.3347 44.5991C78.3347 39.8816 75.056 36.4304 70.5112 36.4304C65.9684 36.4304 62.7458 39.8816 62.7458 44.5991C62.7458 49.4599 65.9684 52.9112 70.5112 52.9112ZM70.5112 50.7552C67.4924 50.7552 65.1908 48.1938 65.1908 44.5991C65.1908 41.1478 67.4633 38.5885 70.5112 38.5885C73.5903 38.5885 75.8627 41.206 75.8627 44.5991C75.8627 48.1376 73.5612 50.7552 70.5112 50.7552Z" fill="#EBF1EF"/>
<path d="M88.7745 52.6243V50.4662H87.1362C85.3523 50.4662 85.238 49.5472 85.238 48.1376V38.8754H88.8036V36.7194H85.238V30.6776H82.793V36.7194H80.2336V38.8754H82.793V48.6262C82.793 51.8197 84.1735 52.6243 86.5602 52.6243H88.7745Z" fill="#EBF1EF"/>
<path d="M96.108 52.9112C97.5759 52.9112 98.8129 52.6534 99.8774 51.9922C100.595 51.5598 101.229 50.9568 101.803 50.1211V52.6243H104.248V43.2477C104.248 42.1832 104.248 39.68 102.58 38.0708C101.457 36.9772 99.761 36.4304 97.921 36.4304C94.871 36.4304 92.0809 38.1851 91.5362 41.4929H93.9811C94.3533 39.7091 95.9355 38.5885 97.8919 38.5885C99.1289 38.5885 100.135 38.9897 100.825 39.68C101.487 40.3432 101.803 41.2913 101.803 42.5283L96.1371 43.6219C94.555 43.9379 93.347 44.4265 92.4842 45.1167C91.4488 45.9234 90.9312 47.044 90.9312 48.3954C90.9312 51.1855 92.9167 52.9112 96.108 52.9112ZM96.397 50.7552C94.555 50.7552 93.3761 49.805 93.3761 48.3393C93.3761 47.649 93.6069 47.1023 94.0373 46.6698C94.5841 46.1521 95.4469 45.7779 96.6548 45.5492L101.832 44.5138C101.832 47.1584 101.2 49.0295 98.9273 50.2084C98.2079 50.5826 97.3742 50.7552 96.397 50.7552Z" fill="#EBF1EF"/>
<path d="M114.285 52.9112C118.198 52.9112 120.412 50.9839 120.412 48.0503C120.412 44.4847 117.191 43.8506 114.343 43.3059C112.158 42.8734 110.173 42.4992 110.173 40.8027C110.173 39.4222 111.41 38.5885 113.509 38.5885C115.609 38.5885 117.191 39.4804 117.68 41.4929H119.952C119.406 38.3286 116.961 36.4304 113.509 36.4304C110.26 36.4304 107.728 38.0126 107.728 41.0043C107.728 44.2539 110.719 44.8589 113.48 45.4057C115.811 45.8652 117.967 46.3247 117.967 48.3102C117.967 49.9215 116.472 50.7552 114.314 50.7552C111.468 50.7552 110.029 49.4308 109.626 47.5035H107.066C107.613 50.8404 110.231 52.9112 114.285 52.9112Z" fill="#EBF1EF"/>
</svg>
